<?xml version="1.0" standalone="no"?>
<!DOCTYPE svg PUBLIC "-//W3C//DTD SVG 20010904//EN"
 "http://www.w3.org/TR/2001/REC-SVG-20010904/DTD/svg10.dtd">
<svg version="1.0" xmlns="http://www.w3.org/2000/svg"
 width="48.000000pt" height="48.000000pt" viewBox="0 0 48.000000 48.000000"
 preserveAspectRatio="xMidYMid meet">

<g transform="translate(0.000000,48.000000) scale(0.100000,-0.100000)"
fill="#A4FFAF" stroke="none">
<path d="M200 426 c0 -12 9 -16 34 -16 48 0 86 -16 123 -52 42 -41 57 -87 49
-150 -5 -38 -4 -49 6 -46 20 7 31 61 24 111 -14 91 -88 155 -188 165 -40 4
-48 2 -48 -12z"/>
<path d="M64 333 c-26 -52 -25 -137 2 -188 11 -22 40 -53 63 -70 36 -25 52
-30 104 -30 67 0 137 26 137 51 0 19 -9 18 -55 -6 -66 -34 -133 -24 -189 28
-57 54 -71 129 -36 197 24 46 25 55 6 55 -7 0 -22 -17 -32 -37z"/>
<path d="M207 342 c-10 -10 -17 -27 -17 -38 0 -11 -9 -25 -20 -32 -16 -10 -20
-23 -20 -70 0 -32 5 -63 12 -70 16 -16 140 -16 156 0 7 7 12 38 12 70 0 47 -4
60 -20 70 -11 7 -20 22 -20 34 0 24 -29 54 -52 54 -8 0 -22 -8 -31 -18z m51
-40 c3 -17 -2 -22 -17 -22 -14 0 -21 6 -21 18 0 38 33 41 38 4z m42 -102 l0
-50 -60 0 -60 0 0 50 0 50 60 0 60 0 0 -50z"/>
<path d="M224 209 c-10 -17 13 -36 27 -22 12 12 4 33 -11 33 -5 0 -12 -5 -16
-11z"/>
</g>
</svg>
